# xmcd
#
# Track frame offsets: 
#        300
#        11570
#        20430
#        27412
#        38604
#        50550
#        60961
#        71619
#        82082
#        94347
#
# Disc length: 1375 seconds
#
# Revision: 0
# Processed by: cddbd v1.5.1PL2 Copyright (c) Steve Scherf et al.
# Submitted via: ExactAudioCopy v0.95b3
#
DISCID=7c055b0a
DTITLE=Waylon Jennings - Crying
DYEAR=1900
DGENRE=Country
TTITLE0=Sally Was A Good Old Girl
TTITLE1=Jole Blon
TTITLE2=It's So Easy
TTITLE3=Big Mamou
TTITLE4=Crying
TTITLE5=Money
TTITLE6=Burning Memories
TTITLE7=Lorena
TTITLE8=Don't Think Twice
TTITLE9=Love Is Gonna Live Here Again
EXTD=
EXTT0=
EXTT1=
EXTT2=
EXTT3=
EXTT4=
EXTT5=
EXTT6=
EXTT7=
EXTT8=
EXTT9=
PLAYORDER=
